<svg width="185" height="54" viewBox="0 0 185 54" fill="none" xmlns="http://www.w3.org/2000/svg">
<g clip-path="url(#clip0_1_29)">
<path d="M178.418 54H6.48048C2.90793 54 0 51.1272 0 47.6104V6.3801C0 2.862 2.90793 0 6.48048 0H178.418C181.989 0 185 2.862 185 6.3801V47.6104C185 51.1272 181.989 54 178.418 54Z" fill="#A6A6A6"/>
<path d="M183.673 47.6118C183.673 50.4684 181.325 52.7823 178.419 52.7823H6.48046C3.57664 52.7823 1.2196 50.4684 1.2196 47.6118V6.37874C1.2196 3.52349 3.57664 1.20149 6.48046 1.20149H178.418C181.325 1.20149 183.672 3.52349 183.672 6.37874L183.673 47.6118Z" fill="#1F294A"/>
<path d="M41.2865 26.7084C41.2468 22.3573 44.9029 20.2405 45.0701 20.142C42.9995 17.1679 39.7901 16.7616 38.6623 16.7292C35.9668 16.4497 33.3521 18.3181 31.979 18.3181C30.5785 18.3181 28.464 16.7562 26.1851 16.8021C23.2525 16.8466 20.509 18.5193 19.0043 21.1167C15.8991 26.4127 18.215 34.1955 21.1901 38.4763C22.6783 40.5729 24.4173 42.9138 26.6935 42.8314C28.9203 42.741 29.7521 41.4328 32.4394 41.4328C35.1021 41.4328 35.8832 42.8314 38.2046 42.7788C40.5945 42.741 42.0992 40.6728 43.5353 38.5573C45.2551 36.1543 45.9458 33.7878 45.9732 33.6663C45.917 33.6474 41.3318 31.9234 41.2865 26.7084Z" fill="white"/>
<path d="M36.9014 13.9131C38.0991 12.4375 38.9186 10.4301 38.6911 8.39294C36.9576 8.46854 34.7896 9.57419 33.5412 11.0173C32.4367 12.289 31.45 14.3734 31.7049 16.3336C33.6522 16.4767 35.6516 15.3657 36.9014 13.9131Z" fill="white"/>
<path d="M73.5135 42.5304H70.4014L68.6967 37.2532H62.7712L61.1473 42.5304H58.1174L63.9881 24.5646H67.6141L73.5135 42.5304ZM68.1828 35.0392L66.6411 30.348C66.4781 29.8687 66.1725 28.7401 65.7216 26.9635H65.6668C65.4873 27.7276 65.1981 28.8562 64.8007 30.348L63.2865 35.0392H68.1828Z" fill="white"/>
<path d="M88.6109 35.8938C88.6109 38.097 88.0066 39.8385 86.7979 41.1169C85.7153 42.255 84.371 42.8233 82.7663 42.8233C81.0341 42.8233 79.7898 42.2104 79.032 40.9846H78.9772V47.8089H76.0556V33.8404C76.0556 32.4553 76.0186 31.0338 75.9473 29.5758H78.5168L78.6798 31.6291H78.7347C79.709 30.082 81.1876 29.3098 83.1719 29.3098C84.7232 29.3098 86.0182 29.9133 87.0542 31.1215C88.0929 32.3311 88.6109 33.9214 88.6109 35.8938ZM85.6345 35.9991C85.6345 34.7382 85.3467 33.6987 84.7684 32.8806C84.1367 32.0274 83.2884 31.6008 82.225 31.6008C81.5042 31.6008 80.8491 31.8384 80.264 32.3068C79.6775 32.7793 79.2938 33.3963 79.1142 34.1604C79.0238 34.5168 78.9786 34.8084 78.9786 35.0379V37.1979C78.9786 38.1402 79.2718 38.9353 79.8584 39.5847C80.4449 40.234 81.2068 40.558 82.1441 40.558C83.2445 40.558 84.101 40.1395 84.7136 39.3052C85.3275 38.4696 85.6345 37.368 85.6345 35.9991Z" fill="white"/>
<path d="M103.736 35.8938C103.736 38.097 103.131 39.8385 101.921 41.1169C100.84 42.255 99.4958 42.8233 97.8911 42.8233C96.1589 42.8233 94.9146 42.2104 94.1582 40.9846H94.1034V47.8089H91.1817V33.8404C91.1817 32.4553 91.1447 31.0338 91.0735 29.5758H93.6429L93.806 31.6291H93.8608C94.8338 30.082 96.3124 29.3098 98.2981 29.3098C99.848 29.3098 101.143 29.9133 102.182 31.1215C103.216 32.3311 103.736 33.9214 103.736 35.8938ZM100.759 35.9991C100.759 34.7382 100.47 33.6987 99.8918 32.8806C99.2601 32.0274 98.4146 31.6008 97.3498 31.6008C96.6276 31.6008 95.9739 31.8384 95.3874 32.3068C94.8009 32.7793 94.4186 33.3963 94.239 34.1604C94.15 34.5168 94.1034 34.8084 94.1034 35.0379V37.1979C94.1034 38.1402 94.3966 38.9353 94.9804 39.5847C95.5669 40.2327 96.3289 40.558 97.2689 40.558C98.3693 40.558 99.2258 40.1395 99.8384 39.3052C100.452 38.4696 100.759 37.368 100.759 35.9991Z" fill="white"/>
<path d="M120.646 37.4922C120.646 39.0204 120.107 40.2637 119.026 41.2236C117.838 42.2725 116.184 42.7963 114.059 42.7963C112.096 42.7963 110.523 42.4237 109.332 41.6772L110.009 39.2782C111.292 40.0423 112.699 40.4257 114.233 40.4257C115.333 40.4257 116.19 40.18 116.805 39.6913C117.417 39.2026 117.723 38.5465 117.723 37.7284C117.723 36.9994 117.471 36.3852 116.965 35.887C116.462 35.3889 115.622 34.9258 114.449 34.4979C111.256 33.3247 109.661 31.6062 109.661 29.3463C109.661 27.8694 110.22 26.6584 111.34 25.7161C112.455 24.7725 113.944 24.3013 115.805 24.3013C117.464 24.3013 118.843 24.5862 119.943 25.1545L119.213 27.5008C118.185 26.95 117.023 26.6746 115.722 26.6746C114.695 26.6746 113.892 26.9244 113.316 27.4212C112.829 27.8653 112.586 28.4067 112.586 29.0479C112.586 29.758 112.864 30.3453 113.423 30.807C113.909 31.2336 114.793 31.6953 116.076 32.1934C117.645 32.8158 118.797 33.5434 119.539 34.3777C120.277 35.2093 120.646 36.2502 120.646 37.4922Z" fill="white"/>
<path d="M130.306 31.7358H127.085V38.0254C127.085 39.6252 127.653 40.4244 128.79 40.4244C129.312 40.4244 129.745 40.3798 130.088 40.2907L130.169 42.4764C129.593 42.6883 128.835 42.795 127.897 42.795C126.743 42.795 125.841 42.448 125.19 41.7555C124.542 41.0616 124.216 39.8979 124.216 38.263V31.7331H122.297V29.5731H124.216V27.2011L127.085 26.3479V29.5731H130.306V31.7358Z" fill="white"/>
<path d="M144.836 35.9464C144.836 37.9377 144.258 39.5725 143.104 40.851C141.894 42.1672 140.288 42.8233 138.285 42.8233C136.356 42.8233 134.82 42.1929 133.674 40.932C132.529 39.6711 131.956 38.0794 131.956 36.1611C131.956 34.1536 132.545 32.5093 133.728 31.2309C134.907 29.9511 136.5 29.3112 138.502 29.3112C140.431 29.3112 141.984 29.9416 143.156 31.2039C144.277 32.4283 144.836 34.0092 144.836 35.9464ZM141.805 36.0396C141.805 34.8448 141.546 33.8202 141.021 32.9656C140.408 31.9315 139.532 31.4158 138.398 31.4158C137.223 31.4158 136.331 31.9329 135.719 32.9656C135.194 33.8215 134.935 34.8624 134.935 36.0936C134.935 37.2883 135.194 38.313 135.719 39.1662C136.35 40.2003 137.233 40.716 138.372 40.716C139.487 40.716 140.363 40.1895 140.995 39.1392C141.533 38.2684 141.805 37.233 141.805 36.0396Z" fill="white"/>
<path d="M154.333 32.107C154.043 32.0544 153.735 32.0274 153.412 32.0274C152.384 32.0274 151.589 32.4094 151.03 33.1749C150.543 33.8499 150.3 34.7031 150.3 35.7331V42.5304H147.379L147.407 33.6555C147.407 32.1624 147.37 30.8029 147.297 29.5771H149.842L149.949 32.0557H150.03C150.338 31.2039 150.824 30.5181 151.49 30.0037C152.141 29.5407 152.844 29.3098 153.602 29.3098C153.872 29.3098 154.116 29.3287 154.333 29.3625V32.107Z" fill="white"/>
<path d="M167.399 35.4402C167.399 35.9559 167.365 36.3906 167.292 36.7457H158.527C158.561 38.0255 158.985 39.0042 159.799 39.6792C160.538 40.2827 161.493 40.5851 162.666 40.5851C163.963 40.5851 165.147 40.3812 166.212 39.9721L166.67 41.9702C165.426 42.5048 163.957 42.7707 162.261 42.7707C160.222 42.7707 158.622 42.1794 157.457 40.9982C156.295 39.8169 155.712 38.2306 155.712 36.2408C155.712 34.2873 156.254 32.6606 157.338 31.3632C158.472 29.9781 160.006 29.2856 161.935 29.2856C163.831 29.2856 165.265 29.9781 166.24 31.3632C167.011 32.4635 167.399 33.8243 167.399 35.4402ZM164.613 34.6937C164.632 33.8405 164.442 33.1034 164.046 32.481C163.54 31.6805 162.763 31.2809 161.717 31.2809C160.762 31.2809 159.985 31.671 159.392 32.454C158.905 33.0764 158.616 33.8229 158.527 34.6923H164.613V34.6937Z" fill="white"/>
<path d="M67.2167 13.5121C67.2167 15.1011 66.7329 16.2972 65.7668 17.1004C64.872 17.8416 63.6003 18.2128 61.9531 18.2128C61.1363 18.2128 60.4374 18.1777 59.8523 18.1075V9.4257C60.6156 9.3042 61.4378 9.2421 62.3258 9.2421C63.8949 9.2421 65.0775 9.57825 65.8751 10.2505C66.7686 11.0106 67.2167 12.0973 67.2167 13.5121ZM65.7024 13.5513C65.7024 12.5212 65.4256 11.7315 64.872 11.1807C64.3183 10.6312 63.5098 10.3558 62.445 10.3558C61.9928 10.3558 61.6077 10.3855 61.2884 10.4476V17.0478C61.4652 17.0748 61.7886 17.0869 62.2587 17.0869C63.3577 17.0869 64.206 16.7859 64.8034 16.1838C65.4009 15.5817 65.7024 14.7042 65.7024 13.5513Z" fill="white"/>
<path d="M75.2456 14.9C75.2456 15.8787 74.962 16.6806 74.3946 17.3097C73.7999 17.9564 73.0119 18.279 72.028 18.279C71.0797 18.279 70.3246 17.9699 69.7614 17.3489C69.1996 16.7292 68.9186 15.9476 68.9186 15.0053C68.9186 14.0198 69.2078 13.2111 69.7888 12.5834C70.3699 11.9556 71.151 11.6411 72.1349 11.6411C73.0832 11.6411 73.8451 11.9502 74.422 12.5699C74.9702 13.172 75.2456 13.9496 75.2456 14.9ZM73.756 14.9459C73.756 14.3586 73.6272 13.8551 73.371 13.4352C73.0695 12.9276 72.6406 12.6738 72.0828 12.6738C71.5059 12.6738 71.0674 12.9276 70.7659 13.4352C70.5083 13.8551 70.3808 14.3667 70.3808 14.9715C70.3808 15.5588 70.5096 16.0623 70.7659 16.4822C71.077 16.9898 71.51 17.2436 72.0691 17.2436C72.6173 17.2436 73.0476 16.9857 73.3573 16.4687C73.6231 16.0407 73.756 15.5331 73.756 14.9459Z" fill="white"/>
<path d="M86.0113 11.7707L83.99 18.1346H82.6744L81.8372 15.3711C81.6247 14.6813 81.4521 13.9955 81.3178 13.3151H81.2917C81.167 14.0144 80.9944 14.6988 80.7724 15.3711L79.883 18.1346H78.5524L76.6517 11.7707H78.1276L78.858 14.796C79.0347 15.5115 79.18 16.1933 79.2965 16.8386H79.3225C79.4294 16.3067 79.6062 15.629 79.8556 14.8095L80.7724 11.772H81.9427L82.8211 14.7447C83.0335 15.4697 83.2061 16.1676 83.3391 16.8399H83.3788C83.4761 16.1852 83.6227 15.4872 83.8173 14.7447L84.6012 11.772H86.0113V11.7707Z" fill="white"/>
<path d="M93.4565 18.1346H92.0203V14.4896C92.0203 13.3664 91.5873 12.8048 90.7185 12.8048C90.2923 12.8048 89.9483 12.9587 89.6811 13.2678C89.4166 13.577 89.2823 13.9415 89.2823 14.3586V18.1332H87.8462V13.5891C87.8462 13.0302 87.8284 12.4241 87.7941 11.768H89.0562L89.1234 12.7629H89.1631C89.3303 12.4538 89.5797 12.1986 89.9072 11.9948C90.2964 11.7572 90.7322 11.637 91.2091 11.637C91.812 11.637 92.3136 11.8287 92.7124 12.2135C93.2085 12.6846 93.4565 13.388 93.4565 14.3222V18.1346Z" fill="white"/>
<path d="M97.4169 18.1346H95.9821V8.8506H97.4169V18.1346Z" fill="white"/>
<path d="M105.872 14.9C105.872 15.8787 105.588 16.6806 105.021 17.3097C104.426 17.9564 103.637 18.279 102.654 18.279C101.705 18.279 100.95 17.9699 100.388 17.3489C99.826 16.7292 99.5451 15.9476 99.5451 15.0053C99.5451 14.0198 99.8342 13.2111 100.415 12.5834C100.996 11.9556 101.777 11.6411 102.76 11.6411C103.71 11.6411 104.47 11.9502 105.048 12.5699C105.597 13.172 105.872 13.9496 105.872 14.9ZM104.381 14.9459C104.381 14.3586 104.252 13.8551 103.996 13.4352C103.696 12.9276 103.266 12.6738 102.709 12.6738C102.131 12.6738 101.692 12.9276 101.392 13.4352C101.135 13.8551 101.007 14.3667 101.007 14.9715C101.007 15.5588 101.136 16.0623 101.392 16.4822C101.703 16.9898 102.136 17.2436 102.696 17.2436C103.244 17.2436 103.673 16.9857 103.982 16.4687C104.25 16.0407 104.381 15.5331 104.381 14.9459Z" fill="white"/>
<path d="M112.823 18.1346H111.533L111.426 17.4015H111.386C110.945 17.9861 110.316 18.279 109.499 18.279C108.89 18.279 108.396 18.086 108.025 17.7026C107.688 17.3543 107.519 16.9209 107.519 16.4066C107.519 15.629 107.848 15.0363 108.51 14.6259C109.171 14.2155 110.1 14.0144 111.296 14.0238V13.905C111.296 13.0667 110.849 12.6482 109.954 12.6482C109.317 12.6482 108.755 12.8061 108.27 13.1193L107.978 12.1905C108.579 11.8247 109.32 11.6411 110.194 11.6411C111.883 11.6411 112.729 12.5186 112.729 14.2736V16.6172C112.729 17.253 112.761 17.7593 112.823 18.1346ZM111.332 15.9476V14.9661C109.747 14.9391 108.955 15.3671 108.955 16.2486C108.955 16.5807 109.046 16.8291 109.231 16.9952C109.416 17.1612 109.652 17.2436 109.932 17.2436C110.248 17.2436 110.542 17.145 110.811 16.9493C111.081 16.7522 111.247 16.5024 111.308 16.196C111.323 16.1271 111.332 16.0434 111.332 15.9476Z" fill="white"/>
<path d="M120.983 18.1346H119.709L119.642 17.1126H119.602C119.195 17.8902 118.501 18.279 117.527 18.279C116.749 18.279 116.101 17.978 115.587 17.3759C115.073 16.7738 114.816 15.9921 114.816 15.0323C114.816 14.0022 115.095 13.1679 115.654 12.5307C116.195 11.9367 116.858 11.6397 117.648 11.6397C118.515 11.6397 119.122 11.9273 119.468 12.5037H119.495V8.8506H120.932V16.4201C120.932 17.0397 120.949 17.6108 120.983 18.1346ZM119.495 15.4508V14.3897C119.495 14.2061 119.481 14.0576 119.455 13.9442C119.374 13.604 119.2 13.3178 118.936 13.0869C118.669 12.8561 118.347 12.74 117.975 12.74C117.439 12.74 117.02 12.9492 116.712 13.3691C116.406 13.7889 116.251 14.3249 116.251 14.9796C116.251 15.6087 116.398 16.119 116.693 16.5119C117.004 16.9304 117.423 17.1396 117.948 17.1396C118.419 17.1396 118.796 16.9655 119.082 16.6158C119.359 16.2932 119.495 15.9044 119.495 15.4508Z" fill="white"/>
<path d="M133.266 14.9C133.266 15.8787 132.982 16.6806 132.415 17.3097C131.82 17.9564 131.033 18.279 130.048 18.279C129.101 18.279 128.346 17.9699 127.782 17.3489C127.22 16.7292 126.939 15.9476 126.939 15.0053C126.939 14.0198 127.228 13.2111 127.809 12.5834C128.39 11.9556 129.171 11.6411 130.156 11.6411C131.103 11.6411 131.867 11.9502 132.442 12.5699C132.99 13.172 133.266 13.9496 133.266 14.9ZM131.778 14.9459C131.778 14.3586 131.649 13.8551 131.392 13.4352C131.09 12.9276 130.662 12.6738 130.103 12.6738C129.527 12.6738 129.089 12.9276 128.786 13.4352C128.528 13.8551 128.401 14.3667 128.401 14.9715C128.401 15.5588 128.53 16.0623 128.786 16.4822C129.097 16.9898 129.53 17.2436 130.089 17.2436C130.637 17.2436 131.069 16.9857 131.379 16.4687C131.643 16.0407 131.778 15.5331 131.778 14.9459Z" fill="white"/>
<path d="M140.988 18.1346H139.553V14.4896C139.553 13.3664 139.12 12.8048 138.25 12.8048C137.824 12.8048 137.48 12.9587 137.214 13.2678C136.948 13.577 136.815 13.9415 136.815 14.3586V18.1332H135.378V13.5891C135.378 13.0302 135.361 12.4241 135.327 11.768H136.588L136.655 12.7629H136.694C136.863 12.4538 137.112 12.1986 137.439 11.9948C137.829 11.7572 138.264 11.637 138.742 11.637C139.343 11.637 139.845 11.8287 140.244 12.2135C140.741 12.6846 140.988 13.388 140.988 14.3222V18.1346Z" fill="white"/>
<path d="M150.653 12.8304H149.072V15.9219C149.072 16.7076 149.353 17.1004 149.909 17.1004C150.167 17.1004 150.38 17.0788 150.549 17.0343L150.586 18.1075C150.302 18.2128 149.929 18.2655 149.47 18.2655C148.903 18.2655 148.462 18.0954 148.143 17.7552C147.822 17.415 147.663 16.8426 147.663 16.0393V12.8304H146.719V11.7706H147.663V10.6042L149.07 10.1857V11.7693H150.652V12.8304H150.653Z" fill="white"/>
<path d="M158.256 18.1346H156.818V14.5166C156.818 13.3758 156.385 12.8048 155.518 12.8048C154.852 12.8048 154.397 13.1355 154.147 13.797C154.105 13.9361 154.08 14.1062 154.08 14.306V18.1332H152.646V8.8506H154.08V12.686H154.108C154.56 11.988 155.208 11.6397 156.048 11.6397C156.643 11.6397 157.135 11.8314 157.525 12.2162C158.012 12.6954 158.256 13.4082 158.256 14.3505V18.1346Z" fill="white"/>
<path d="M166.098 14.6516C166.098 14.9054 166.079 15.1187 166.045 15.2928H161.738C161.757 15.9219 161.963 16.4012 162.361 16.7333C162.726 17.0303 163.196 17.1788 163.772 17.1788C164.409 17.1788 164.99 17.0789 165.513 16.8777L165.738 17.8605C165.126 18.1224 164.405 18.2534 163.57 18.2534C162.57 18.2534 161.782 17.9631 161.212 17.3826C160.639 16.8021 160.355 16.0232 160.355 15.0458C160.355 14.0859 160.62 13.2867 161.153 12.6495C161.709 11.9691 162.462 11.6289 163.411 11.6289C164.34 11.6289 165.046 11.9691 165.523 12.6495C165.908 13.1895 166.098 13.8578 166.098 14.6516ZM164.728 14.2857C164.739 13.8659 164.645 13.5041 164.45 13.199C164.201 12.8061 163.821 12.609 163.307 12.609C162.838 12.609 162.456 12.8007 162.164 13.1855C161.926 13.4919 161.785 13.8578 161.738 14.2857H164.728Z" fill="white"/>
</g>
<defs>
<clipPath id="clip0_1_29">
<rect width="185" height="54" fill="white"/>
</clipPath>
</defs>
</svg>
