<svg width="69" height="66" viewBox="0 0 69 66" fill="none" xmlns="http://www.w3.org/2000/svg">
<circle cx="44.8177" cy="24.1822" r="24.1822" fill="#FD82C1"/>
<circle cx="41.271" cy="44.4953" r="20.6355" fill="#9DF3AC"/>
<circle cx="20.6355" cy="33.5327" r="20.6355" fill="#00E9DE"/>
<path d="M43.9514 38.8047C41.4319 41.8518 38.5813 44.9833 35.5049 48.0597C32.4284 51.1362 29.2973 53.988 26.2507 56.5066C26.4562 56.5139 26.6614 56.5222 26.8687 56.5222C31.4019 56.5171 35.748 54.714 38.9534 51.5086C42.1588 48.3031 43.9619 43.9571 43.967 39.4239C43.967 39.2163 43.9588 39.0105 43.9514 38.8047V38.8047Z" fill="#1F294A"/>
<path d="M51.0506 15.2436C48.6818 12.8739 44.3438 13.7142 37.7884 17.8117C35.3745 19.342 33.0461 21.0035 30.8138 22.7885C27.9752 22.1129 25.0109 22.1754 22.2033 22.9702C19.3957 23.765 16.8384 25.2655 14.7752 27.3288C12.7119 29.3921 11.2114 31.9494 10.4166 34.7569C9.62178 37.5645 9.55921 40.5289 10.2348 43.3675C8.44973 45.5997 6.7883 47.928 5.25801 50.3421C1.16023 56.8977 0.319358 61.2358 2.68686 63.6057C3.13889 64.0462 3.67622 64.3895 4.26582 64.6147C4.85541 64.8398 5.48483 64.942 6.11537 64.915C8.54974 64.915 11.8067 63.6268 15.949 61.0373C21.3206 57.6787 27.6519 52.4577 33.7764 46.334C39.901 40.2104 45.1224 33.8782 48.4797 28.5066C52.5772 21.9501 53.4181 17.612 51.0506 15.2436V15.2436ZM43.6128 27.0472C40.4335 31.8661 35.7143 37.4893 30.3241 42.878C24.9339 48.2668 19.3122 52.9874 14.4932 56.1668C9.7512 59.2951 7.19592 60.0044 6.25643 60.0374C6.28941 59.0985 6.99868 56.5426 10.1271 51.8006C10.8205 50.7497 11.5926 49.6587 12.4219 48.5422C13.3221 49.9645 14.4255 51.2476 15.6971 52.3505C20.2734 48.9482 24.5857 45.2044 28.5969 41.1511C32.65 37.1402 36.3938 32.8282 39.7962 28.2523C38.6932 26.9801 37.4099 25.8762 35.987 24.9758C37.1036 24.145 38.1945 23.3744 39.2454 22.681C43.9875 19.5526 46.5427 18.8434 47.4822 18.8104C47.4492 19.7496 46.74 22.3052 43.6116 27.0472H43.6128Z" fill="#1F294A"/>
<path d="M4.88525 16.2191C6.50423 16.2209 8.05637 16.8649 9.20116 18.0097C10.346 19.1545 10.9899 20.7066 10.9918 22.3256C10.9918 22.6495 11.1204 22.9601 11.3495 23.1892C11.5785 23.4182 11.8892 23.5469 12.2131 23.5469C12.537 23.5469 12.8476 23.4182 13.0767 23.1892C13.3057 22.9601 13.4344 22.6495 13.4344 22.3256C13.4362 20.7066 14.0802 19.1545 15.225 18.0097C16.3698 16.8649 17.9219 16.2209 19.5409 16.2191C19.8648 16.2191 20.1755 16.0904 20.4045 15.8613C20.6336 15.6323 20.7622 15.3217 20.7622 14.9978C20.7622 14.6738 20.6336 14.3632 20.4045 14.1342C20.1755 13.9051 19.8648 13.7764 19.5409 13.7764C17.9219 13.7746 16.3698 13.1306 15.225 11.9858C14.0802 10.841 13.4362 9.2889 13.4344 7.66991C13.4344 7.346 13.3057 7.03536 13.0767 6.80632C12.8476 6.57728 12.537 6.44861 12.2131 6.44861C11.8892 6.44861 11.5785 6.57728 11.3495 6.80632C11.1204 7.03536 10.9918 7.346 10.9918 7.66991C10.9899 9.2889 10.346 10.841 9.20116 11.9858C8.05637 13.1306 6.50423 13.7746 4.88525 13.7764C4.56134 13.7764 4.25069 13.9051 4.02165 14.1342C3.79261 14.3632 3.66394 14.6738 3.66394 14.9978C3.66394 15.3217 3.79261 15.6323 4.02165 15.8613C4.25069 16.0904 4.56134 16.2191 4.88525 16.2191Z" fill="#1F294A"/>
<path d="M43.967 60.1861C45.316 60.1861 46.4096 59.0925 46.4096 57.7435C46.4096 56.3944 45.316 55.3008 43.967 55.3008C42.618 55.3008 41.5244 56.3944 41.5244 57.7435C41.5244 59.0925 42.618 60.1861 43.967 60.1861Z" fill="#1F294A"/>
<path d="M2.44261 40.6452C3.79163 40.6452 4.88522 39.5516 4.88522 38.2026C4.88522 36.8535 3.79163 35.7599 2.44261 35.7599C1.09359 35.7599 0 36.8535 0 38.2026C0 39.5516 1.09359 40.6452 2.44261 40.6452Z" fill="#1F294A"/>
<path d="M51.2948 38.2026C52.6439 38.2026 53.7375 37.109 53.7375 35.76C53.7375 34.4109 52.6439 33.3174 51.2948 33.3174C49.9458 33.3174 48.8522 34.4109 48.8522 35.76C48.8522 37.109 49.9458 38.2026 51.2948 38.2026Z" fill="#1F294A"/>
</svg>
