<svg width="48" height="48" viewBox="0 0 48 48" fill="none" xmlns="http://www.w3.org/2000/svg">
<circle cx="24" cy="24" r="24" fill="#F29000"/>
<path fill-rule="evenodd" clip-rule="evenodd" d="M23.2978 10.6667C19.4609 10.6667 16.3914 13.7362 16.3914 17.5732C16.3914 21.4101 19.4609 24.4796 23.2978 24.4796C27.1348 24.4796 30.2043 21.4101 30.2043 17.5732C30.2043 13.7362 27.1348 10.6667 23.2978 10.6667ZM23.3938 20.6427C21.7631 20.6427 20.4201 19.2998 20.4201 17.6691C20.4201 16.0384 21.7631 14.6955 23.3938 14.6955C25.0245 14.6955 26.3674 16.0384 26.3674 17.6691C26.3674 19.2998 25.0245 20.6427 23.3938 20.6427Z" fill="white"/>
<path d="M25.9835 29.6595C27.2305 29.4676 28.5735 29.0839 30.0123 28.5084C30.9716 28.1247 31.4512 26.9736 31.0675 26.0144C30.6838 25.0552 29.5327 24.5755 28.5735 24.9592C22.8181 27.3573 19.0771 25.1511 18.8852 25.0552C18.0219 24.4796 16.8708 24.7674 16.2953 25.7266C15.7198 26.5899 16.0075 27.8369 16.9668 28.3165C17.0627 28.4125 18.5975 29.2758 21.1874 29.6595L16.7749 34.0719C16.0075 34.8393 16.1035 35.9904 16.7749 36.7578C17.1586 37.1415 17.6382 37.3333 18.1178 37.3333C18.5975 37.3333 19.0771 37.1415 19.4608 36.7578L23.4895 32.6331L27.5183 36.7578C27.902 37.1415 28.3816 37.3333 28.8612 37.3333C29.3409 37.3333 29.8205 37.1415 30.2042 36.7578C30.9716 35.9904 30.9716 34.8393 30.2042 34.0719L25.9835 29.6595Z" fill="white"/>
</svg>
