<svg width="48" height="48" viewBox="0 0 48 48" fill="none" xmlns="http://www.w3.org/2000/svg">
<circle cx="24" cy="24" r="24" fill="#4B6D9A"/>
<path fill-rule="evenodd" clip-rule="evenodd" d="M23.0228 31.8786H24.7214C24.7214 31.8786 25.1744 31.8786 25.5141 31.5359C25.7406 31.3075 25.7406 30.8505 25.7406 30.8505C25.7406 30.8505 25.7406 28.5658 26.7598 28.2231C27.7789 27.8804 29.1378 30.3936 30.4967 31.4217C31.5158 32.1071 32.3085 31.9929 32.3085 31.9929H36.0455C36.0455 31.9929 37.9705 31.8786 37.0646 30.2793C36.9514 30.1651 36.4984 29.137 34.3468 27.0808C31.9688 24.9103 32.3085 25.253 35.1395 21.4833C36.8381 19.1986 37.5176 17.8278 37.2911 17.1423C37.0646 16.5712 35.819 16.6854 35.819 16.6854H31.6291C31.6291 16.6854 31.2894 16.6854 31.0629 16.7996C30.8364 16.9139 30.7232 17.2566 30.7232 17.2566C30.7232 17.2566 30.0437 19.0843 29.1378 20.5694C27.326 23.768 26.5333 23.8822 26.1936 23.768C25.5141 23.311 25.6274 21.9402 25.6274 20.9121C25.6274 17.8278 26.0803 16.5712 24.7214 16.2285C24.2685 16.1142 23.9288 16 22.7963 16C21.3242 16 20.0786 16 19.2859 16.3427C18.8329 16.5712 18.4932 17.1423 18.7197 17.1423C18.9462 17.1423 19.6256 17.2566 19.9653 17.7135C20.4183 18.2847 20.4183 19.6555 20.4183 19.6555C20.4183 19.6555 20.6448 23.311 19.8521 23.768C19.2859 24.1107 18.4932 23.4253 16.7946 20.5694C15.8887 19.0843 15.2093 17.3708 15.2093 17.3708C15.2093 17.3708 15.096 17.0281 14.8695 16.9139C14.6431 16.6854 14.1901 16.6854 14.1901 16.6854H10.2267C10.2267 16.6854 9.66048 16.6854 9.434 16.9139C9.20752 17.1423 9.434 17.5993 9.434 17.5993C9.434 17.5993 12.6047 24.9103 16.1152 28.6801C19.2859 32.1071 23.0228 31.8786 23.0228 31.8786Z" fill="white"/>
</svg>
